<svg width="32" height="35" viewBox="0 0 32 35" fill="none" xmlns="http://www.w3.org/2000/svg">
<path d="M3.55556 0H28.4444C29.3874 0 30.2918 0.402012 30.9586 1.1176C31.6254 1.83318 32 2.80373 32 3.81572V30.5257C32 31.5377 31.6254 32.5083 30.9586 33.2239C30.2918 33.9395 29.3874 34.3415 28.4444 34.3415H3.55556C2.61256 34.3415 1.70819 33.9395 1.0414 33.2239C0.374602 32.5083 0 31.5377 0 30.5257V3.81572C0 2.80373 0.374602 1.83318 1.0414 1.1176C1.70819 0.402012 2.61256 0 3.55556 0ZM26.6667 3.81572H22.2222C20.572 3.81572 18.9893 4.51924 17.8224 5.77151C16.6556 7.02379 16 8.72224 16 10.4932V15.2629H12.4444V20.9865H16V34.3415H21.3333V20.9865H26.6667V15.2629H21.3333V11.4472C21.3333 10.9412 21.5206 10.4559 21.854 10.0981C22.1874 9.7403 22.6396 9.5393 23.1111 9.5393H26.6667V3.81572Z" fill="#7D8C93" fill-opacity="0.8"/>
</svg>
