<svg width="32" height="35" viewBox="0 0 32 35" fill="none" xmlns="http://www.w3.org/2000/svg">
<path fill-rule="evenodd" clip-rule="evenodd" d="M5.62433 0H26.375C29.481 0 32 2.7026 32 6.03659V28.3049C32 31.6381 29.481 34.3415 26.375 34.3415H5.62433C2.51833 34.3415 0 31.6381 0 28.3049V6.03659C0 2.7026 2.51833 0 5.62433 0ZM20.6526 5.28329H11.348C9.64404 5.28329 8.00992 6.0097 6.80507 7.30271C5.60022 8.59572 4.92334 10.3494 4.92334 12.178V22.1634C4.92334 25.9674 7.80334 29.0582 11.348 29.0582H20.6526C22.3565 29.0582 23.9906 28.3318 25.1955 27.0387C26.4003 25.7457 27.0772 23.992 27.0772 22.1634V12.178C27.0772 8.37402 24.1972 5.28329 20.6526 5.28329ZM8.30669 8.91421C9.05453 8.11165 10.0688 7.66078 11.1264 7.66078H20.8741C23.0784 7.66078 24.8618 9.57466 24.8618 11.9403V22.4012C24.8618 23.5362 24.4417 24.6247 23.6938 25.4272C22.946 26.2298 21.9317 26.6807 20.8741 26.6807H11.1264C8.92211 26.6807 7.13872 24.7668 7.13872 22.4012V11.9403C7.13872 10.8053 7.55886 9.71677 8.30669 8.91421ZM22.7947 9.87911C22.5351 9.60045 22.1829 9.44389 21.8156 9.44389C21.4484 9.44389 21.0962 9.60045 20.8366 9.87911C20.5769 10.1578 20.431 10.5357 20.431 10.9298C20.431 11.3239 20.5769 11.7019 20.8366 11.9805C21.0962 12.2592 21.4484 12.4158 21.8156 12.4158C22.1829 12.4158 22.5351 12.2592 22.7947 11.9805C23.0544 11.7019 23.2003 11.3239 23.2003 10.9298C23.2003 10.5357 23.0544 10.1578 22.7947 9.87911ZM19.9165 12.9679C18.8779 11.8532 17.4692 11.227 16.0003 11.227C14.5314 11.227 13.1226 11.8532 12.084 12.9679C11.0453 14.0825 10.4618 15.5944 10.4618 17.1707C10.4618 18.7471 11.0453 20.2589 12.084 21.3736C13.1226 22.4882 14.5314 23.1144 16.0003 23.1144C17.4692 23.1144 18.8779 22.4882 19.9165 21.3736C20.9552 20.2589 21.5387 18.7471 21.5387 17.1707C21.5387 15.5944 20.9552 14.0825 19.9165 12.9679ZM13.6505 14.649C14.2737 13.9802 15.1189 13.6045 16.0003 13.6045C16.8816 13.6045 17.7268 13.9802 18.35 14.649C18.9732 15.3178 19.3233 16.2249 19.3233 17.1707C19.3233 18.1165 18.9732 19.0236 18.35 19.6924C17.7268 20.3612 16.8816 20.737 16.0003 20.737C15.1189 20.737 14.2737 20.3612 13.6505 19.6924C13.0273 19.0236 12.6772 18.1165 12.6772 17.1707C12.6772 16.2249 13.0273 15.3178 13.6505 14.649Z" fill="#7D8C93" fill-opacity="0.8"/>
</svg>
