<svg width="32" height="35" viewBox="0 0 32 35" fill="none" xmlns="http://www.w3.org/2000/svg">
<path d="M17.7247 18.9264C17.2117 18.6059 16.4987 18.6059 15.9193 18.6059H14.017V22.8127H15.763C16.4093 22.8127 17.2337 22.8625 17.791 22.4425C18.3027 22.073 18.5923 21.3475 18.5923 20.6567C18.5923 20.015 18.2363 19.2473 17.7247 18.9264ZM17.007 15.3338C17.4303 14.9879 17.6523 14.3712 17.6523 13.8031C17.6523 13.186 17.3853 12.5937 16.8957 12.2731C16.3833 11.9526 15.447 12.0267 14.8457 12.0267H14.017V15.7291H15.1133C15.737 15.7288 16.4727 15.7781 17.007 15.3338ZM26.375 0H5.62433C2.51833 0 0 2.7026 0 6.03659V28.3049C0 31.6381 2.51833 34.3415 5.62433 34.3415H26.375C29.481 34.3415 32 31.6381 32 28.3049V6.03659C32 2.7026 29.481 0 26.375 0ZM16.868 25.9475H10.3307V9.01499H17.4733C19.5423 9.01499 21.4513 10.4284 21.4513 12.9213C21.4513 14.8462 20.45 16.1645 19.1727 16.574V16.6238C21.0667 17.0437 22.4193 18.1477 22.4193 20.8109C22.4193 23.2756 20.8553 25.9475 16.868 25.9475Z" fill="#7D8C93" fill-opacity="0.8"/>
</svg>
